<svg xmlns="http://www.w3.org/2000/svg" xmlns:svg="http://www.w3.org/2000/svg" id="svg2" width="210mm" height="297mm" version="1.1" viewBox="0 0 744.094 1052.362"><metadata id="metadata7"/><g id="layer1"><rect id="rect4136" width="341.432" height="148.492" x="227.284" y="400.814" fill="#ef2900" fill-opacity="1" stroke="#656565" stroke-dasharray="none" stroke-linejoin="round" stroke-miterlimit="4" stroke-opacity="1" stroke-width="1.4" opacity="1" ry="74.246"/></g><g id="layer2"><path id="path4141" fill="#ff2c00" fill-opacity="1" fill-rule="evenodd" stroke="#000" stroke-linecap="butt" stroke-linejoin="miter" stroke-opacity="1" stroke-width="1" d="m 327.84379,363.64372 69.70052,154.55334 a 0.49999805,0.50001293 44.507264 0 0 0.91506,-0.008 l 65.6599,-152.53299 a 0.49999932,0.50001735 12.073001 0 0 -0.45179,-0.69766 l -135.36044,-2.0203 z m 0.44833,0.29439 134.61314,2.00915 -64.91581,150.80441 -69.23408,-153.51905 z"/><path id="path4189" fill="#ccc" fill-opacity="1" stroke="#000" stroke-dasharray="none" stroke-linejoin="round" stroke-miterlimit="4" stroke-opacity="1" stroke-width="1.414" d="m 372.52257,458.12577 c -13.78548,-30.58716 -24.8726,-55.80492 -24.63804,-56.03948 0.23456,-0.23456 22.48773,-0.30847 49.45148,-0.16423 l 49.02502,0.26224 -23.68586,55.05331 c -13.02723,30.27932 -24.00137,55.37908 -24.38698,55.77724 -0.38561,0.39815 -11.98014,-24.30193 -25.76562,-54.88908 z" opacity="1"/><path id="path4191" fill="#ccc" fill-opacity="1" stroke="#000" stroke-dasharray="none" stroke-linejoin="round" stroke-miterlimit="4" stroke-opacity="1" stroke-width="1.414" d="m 338.64623,382.93099 c -4.10119,-9.17269 -7.19181,-16.94252 -6.86804,-17.26629 0.81198,-0.81198 127.63853,1.00129 128.4724,1.83681 0.36918,0.3699 -2.39251,7.75664 -6.13709,16.41497 l -6.80833,15.74244 -50.60112,-0.0251 -50.60112,-0.0251 -7.4567,-16.67764 z" opacity="1"/></g></svg>